<svg version="1.1" viewBox="0.0 0.0 32.0 32.0" fill="none" stroke="none" stroke-linecap="square" stroke-miterlimit="10" xmlns:xlink="http://www.w3.org/1999/xlink" xmlns="http://www.w3.org/2000/svg"><clipPath id="p.0"><path d="m0 0l32.0 0l0 32.0l-32.0 0l0 -32.0z" clip-rule="nonzero"/></clipPath><g clip-path="url(#p.0)"><path fill="#000000" fill-opacity="0.0" d="m0 0l32.0 0l0 32.0l-32.0 0z" fill-rule="evenodd"/><path fill="#674ea7" d="m1.0678346 24.78193l0 0c0 -0.73937607 0.5993836 -1.3387604 1.3387606 -1.3387604l27.012444 0c0.35506248 0 0.69558144 0.14104843 0.94664764 0.39211464c0.2510662 0.2510662 0.39211273 0.59158516 0.39211273 0.94664574l0 5.354883c0 0.73937607 -0.5993824 1.3387604 -1.3387604 1.3387604l-27.012444 0l0 0c-0.739377 0 -1.3387606 -0.5993843 -1.3387606 -1.3387604z" fill-rule="evenodd"/><path fill="#674ea7" d="m1.0905578 24.977312l0 -9.812598l0 0c0 -5.4193487 6.646325 -9.812598 14.844982 -9.812598c8.198657 0 14.844983 4.3932495 14.844983 9.812598l0 9.812598z" fill-rule="evenodd"/><path fill="#ffffff" d="m16.137373 23.291124l0 0c0 -2.8816948 2.3688564 -5.2177715 5.290987 -5.2177715l0 0c1.4032555 0 2.7490387 0.5497284 3.741291 1.5282497c0.99225235 0.97852325 1.5496941 2.3056831 1.5496941 3.6895218l0 0c0 2.8816948 -2.3688545 5.2177696 -5.290985 5.2177696l0 0c-2.9221306 0 -5.290987 -2.3360748 -5.290987 -5.2177696z" fill-rule="evenodd"/><path fill="#b4a7d6" d="m19.186907 23.436213l0 0c0 -1.3272152 1.0463142 -2.4031353 2.3370094 -2.4031353l0 0c0.619812 0 1.2142391 0.25318527 1.6525135 0.70386124c0.43827438 0.45067596 0.684494 1.061924 0.684494 1.6992741l0 0c0 1.3272171 -1.0463142 2.4031372 -2.3370075 2.4031372l0 0c-1.2906952 0 -2.3370094 -1.0759201 -2.3370094 -2.4031372z" fill-rule="evenodd"/><path fill="#ffffff" d="m24.535467 19.56114l0 0c0 -0.8348942 0.67681503 -1.5117111 1.5117111 -1.5117111l0 0l0 0c0.4009304 0 0.78543854 0.15926933 1.0689392 0.44277c0.28350067 0.28350067 0.44277 0.6680107 0.44277 1.0689411l0 7.412119c0 0.8348942 -0.67681503 1.5117111 -1.5117092 1.5117111l0 0l0 0c-0.8348961 0 -1.5117111 -0.67681694 -1.5117111 -1.5117111z" fill-rule="evenodd"/><path fill="#ffffff" d="m4.711927 21.429443l0 0c0 -2.524643 2.046628 -4.571272 4.5712714 -4.571272l0.20432281 0l0 0c1.2123766 0 2.3750973 0.48161507 3.232377 1.3388939c0.8572798 0.85728073 1.3388948 2.0200005 1.3388948 3.232378l0 1.2929974c0 2.524643 -2.046628 4.57127 -4.571272 4.57127l-0.20432281 0c-2.5246434 0 -4.5712714 -2.046627 -4.5712714 -4.57127z" fill-rule="evenodd"/><path fill="#674ea7" d="m7.907511 24.867805l0 0c0 -2.2858086 1.8530135 -4.1388226 4.138823 -4.1388226l0 0l0 0c1.0976839 0 2.1504097 0.43605423 2.926589 1.2122345c0.77618027 0.77617836 1.2122326 1.8289051 1.2122326 2.926588l0 1.395256c0 2.2858086 -1.853013 4.1388226 -4.1388216 4.1388226l0 0l0 0c-2.2858095 0 -4.138823 -1.853014 -4.138823 -4.1388226z" fill-rule="evenodd"/><path fill="#ffffff" d="m10.941094 21.185307l0 0c-0.32514572 -0.8080063 0.07935619 -1.6914749 0.9034805 -1.9732819l0 0l0 0c0.39575863 -0.13532639 0.8373337 -0.11097336 1.2275848 0.06770706c0.3902521 0.17867851 0.69721127 0.49704552 0.85335255 0.8850651l2.2181988 5.5123596c0.32514572 0.8080082 -0.07935715 1.6914749 -0.9034805 1.9732819l0 0l0 0c-0.82412434 0.28180504 -1.7557917 -0.14476395 -2.0809374 -0.95277214z" fill-rule="evenodd"/><path fill="#674ea7" d="m7.907511 22.713602l0 0c0 -0.9182167 0.7443614 -1.6625786 1.662579 -1.6625786l0 0l0 0c0.44094276 0 0.86382675 0.17516518 1.175621 0.48695946c0.31179333 0.31179237 0.48695755 0.73467636 0.48695755 1.1756191l0 7.110384c0 0.9182167 -0.7443619 1.6625786 -1.6625786 1.6625786l0 0l0 0c-0.91821766 0 -1.662579 -0.7443619 -1.662579 -1.6625786z" fill-rule="evenodd"/><path fill="#ffffff" d="m4.711285 20.997892l0 0c0 -0.9182167 0.7443619 -1.6625805 1.6625786 -1.6625805l0 0l0 0c0.44094372 0 0.86382675 0.17516518 1.175621 0.48695946c0.3117938 0.31179428 0.48695803 0.73467636 0.48695803 1.175621l0 6.1227913c0 0.9182167 -0.7443619 1.6625786 -1.662579 1.6625786l0 0l0 0c-0.9182167 0 -1.6625786 -0.7443619 -1.6625786 -1.6625786z" fill-rule="evenodd"/><path fill="#674ea7" d="m8.033791 22.048073l0 0c0 -1.259037 0.6772909 -2.2796898 1.5127707 -2.2796898l0 0c0.40121174 0 0.7859907 0.24018097 1.0696907 0.66770554c0.28369904 0.42752457 0.44307995 1.0073719 0.44307995 1.6119843l0 0c0 1.259037 -0.67728996 2.279688 -1.5127707 2.279688l0 0c-0.83547974 0 -1.5127707 -1.0206509 -1.5127707 -2.279688z" fill-rule="evenodd"/></g></svg>