<?xml version="1.0" standalone="no"?>
<!DOCTYPE svg PUBLIC "-//W3C//DTD SVG 20010904//EN"
 "http://www.w3.org/TR/2001/REC-SVG-20010904/DTD/svg10.dtd">
<svg version="1.0" xmlns="http://www.w3.org/2000/svg"
 width="1024.000000pt" height="1024.000000pt" viewBox="0 0 1024.000000 1024.000000"
 preserveAspectRatio="xMidYMid meet">
<metadata>
Created by potrace 1.14, written by Peter Selinger 2001-2017
</metadata>
<g transform="translate(0.000000,1024.000000) scale(0.100000,-0.100000)"
fill="#000000" stroke="none">
<path d="M4685 9094 c-357 -36 -404 -43 -625 -95 -247 -58 -360 -92 -545 -164
-11 -4 -47 -18 -80 -31 -246 -92 -587 -276 -824 -444 -146 -103 -175 -125
-233 -175 -32 -27 -87 -75 -124 -105 -88 -74 -277 -261 -394 -391 -150 -167
-280 -341 -387 -519 -31 -52 -66 -108 -79 -125 -12 -16 -39 -64 -59 -105 -20
-41 -43 -82 -50 -90 -7 -8 -27 -49 -45 -90 -18 -41 -54 -119 -80 -175 -26 -55
-53 -120 -60 -145 -7 -25 -18 -56 -25 -70 -24 -48 -76 -191 -91 -255 -1 -5
-23 -92 -48 -192 -25 -100 -46 -193 -46 -207 0 -13 -4 -46 -10 -73 -57 -281
-77 -666 -55 -1038 3 -60 10 -128 15 -150 5 -22 14 -80 20 -130 6 -49 17 -115
25 -145 8 -30 16 -75 20 -100 3 -25 10 -58 15 -75 5 -16 12 -55 16 -85 3 -30
15 -81 26 -115 11 -33 22 -71 25 -84 2 -13 10 -36 18 -50 7 -15 17 -45 21 -66
14 -75 145 -410 207 -531 21 -39 37 -75 37 -81 0 -5 13 -28 29 -51 17 -22 46
-72 65 -110 35 -70 106 -184 195 -315 110 -161 134 -194 165 -227 18 -19 47
-56 65 -82 17 -26 39 -53 49 -60 10 -7 33 -33 52 -58 38 -48 260 -268 351
-347 170 -147 231 -198 242 -202 7 -2 39 -25 72 -51 33 -26 85 -62 115 -81 30
-18 78 -50 105 -70 28 -20 68 -44 89 -53 22 -9 63 -31 90 -50 28 -18 65 -40
81 -48 65 -35 284 -138 290 -138 4 0 58 -23 120 -50 62 -28 118 -50 125 -50 7
0 58 -15 114 -34 445 -151 865 -213 1375 -203 314 6 495 24 763 78 185 36 245
52 393 101 33 11 105 33 160 48 55 15 143 48 196 73 53 25 125 55 160 67 35
12 71 27 79 34 15 13 63 40 235 131 91 49 125 70 203 125 23 16 59 38 80 49
20 10 58 38 84 60 25 23 62 48 81 56 18 7 40 22 48 31 8 10 46 43 84 73 39 31
81 65 94 76 97 79 361 346 447 453 33 40 85 103 117 139 32 37 65 80 74 97 9
17 34 51 55 76 22 25 46 58 54 75 20 42 56 100 76 122 10 10 27 41 39 68 12
28 35 70 52 95 17 25 38 56 47 70 10 14 21 37 25 50 4 14 29 66 55 115 26 50
55 113 64 141 9 28 23 60 31 70 8 10 15 25 15 32 0 8 7 30 16 50 46 103 61
147 122 352 82 276 136 564 160 856 4 49 7 251 7 449 -1 415 -6 458 -100 850
-13 55 -29 126 -36 158 -7 32 -16 60 -21 63 -4 3 -8 15 -8 27 0 12 -14 56 -30
97 -17 41 -35 94 -41 118 -5 24 -31 89 -58 145 -26 56 -54 120 -61 142 -19 58
-165 340 -211 407 -22 32 -55 88 -75 125 -19 37 -45 77 -58 89 -12 13 -33 45
-46 73 -13 28 -27 51 -31 51 -4 0 -33 34 -64 76 -114 151 -261 320 -370 423
-38 36 -95 91 -126 121 -75 73 -166 151 -209 180 -19 13 -51 37 -71 54 -19 17
-61 49 -93 71 -32 22 -79 57 -104 78 -26 20 -52 37 -58 37 -7 0 -38 19 -70 43
-33 24 -86 56 -119 72 -33 15 -73 38 -90 50 -16 12 -70 41 -120 65 -49 24
-106 53 -125 66 -19 12 -66 35 -105 50 -38 15 -110 44 -160 64 -49 21 -151 57
-225 80 -191 60 -221 68 -260 75 -19 3 -48 10 -65 15 -53 17 -285 60 -384 71
-53 6 -116 15 -141 20 -45 9 -681 20 -755 13z m-895 -4199 l0 -2435 -472 2
-473 3 1 425 c0 234 1 1328 2 2433 l2 2007 470 0 470 0 0 -2435z m3368 1372
l2 -467 -1272 2 -1273 3 -3 455 c-1 250 0 461 3 468 3 10 263 12 1272 10
l1268 -3 3 -468z m-5 -1242 c-1 -181 -3 -395 -3 -475 l0 -145 -1083 0 c-595 0
-1256 1 -1469 3 l-388 2 0 470 0 470 1443 3 c793 1 1456 2 1472 2 l30 0 -2
-330z m4 -1070 c3 -9 2 -224 -2 -478 l-7 -462 -1267 0 -1266 0 -3 465 c-1 256
0 471 3 478 3 9 267 12 1270 12 1131 0 1266 -2 1272 -15z"/>
<path d="M9920 80 l0 -80 160 0 160 0 0 80 0 80 -160 0 -160 0 0 -80z"/>
</g>
</svg>
